<svg version="1.1" id="Layer_1" xmlns="http://www.w3.org/2000/svg" xmlns:xlink="http://www.w3.org/1999/xlink" x="0px" y="0px"
	 width="100%" viewBox="0 0 500 500" enable-background="new 0 0 500 500" xml:space="preserve">
<path fill="#FEFFFF" opacity="1.000000" stroke="none" 
	d="
M277.000000,501.000000 
	C184.666687,501.000000 92.833374,501.000000 1.000049,501.000000 
	C1.000033,334.333405 1.000033,167.666794 1.000016,1.000139 
	C167.666565,1.000093 334.333130,1.000093 500.999756,1.000046 
	C500.999847,167.666519 500.999847,334.333038 500.999939,500.999786 
	C426.500000,501.000000 352.000000,501.000000 277.000000,501.000000 
M389.871338,375.370544 
	C444.416748,337.210876 470.425964,284.979340 466.073883,218.437622 
	C463.331848,176.512512 446.924316,139.716370 417.823120,109.755707 
	C364.085480,54.430973 297.401978,32.691566 221.331924,39.371151 
	C181.695267,42.851582 145.326904,56.566250 112.301880,79.059662 
	C70.811821,107.318619 42.120701,144.261032 32.425755,194.481827 
	C26.387897,225.758530 25.757469,256.989227 32.724087,288.199982 
	C41.519386,327.603333 60.298599,361.883453 86.922035,391.900330 
	C93.382431,399.184174 94.427917,406.225098 91.699135,415.220917 
	C86.635315,431.914490 81.952698,448.751587 77.924377,465.721893 
	C75.135948,477.468842 80.364975,483.784515 92.381119,482.771454 
	C103.244217,481.855530 114.098434,479.591522 124.683266,476.862122 
	C151.343140,469.987610 176.203384,459.015717 198.117233,442.049133 
	C206.453293,435.595001 208.039688,426.419525 202.765442,417.665131 
	C198.037231,409.817078 189.317032,407.035187 180.146805,411.183655 
	C172.892975,414.465149 165.971924,418.498108 158.976746,422.331726 
	C149.223694,427.676727 139.539276,433.147003 128.387756,439.365387 
	C127.902809,435.947021 126.798523,433.314545 127.340782,431.081970 
	C129.536591,422.041473 132.216248,413.117584 134.760391,404.162872 
	C137.708267,393.787170 135.483337,384.793365 127.790009,377.151794 
	C122.944572,372.338989 117.987755,367.614410 113.442734,362.527008 
	C85.730476,331.507751 71.435844,294.585724 66.851189,253.749161 
	C60.150185,194.061813 83.419609,147.362869 130.901932,112.389145 
	C165.225174,87.107910 204.542267,75.830132 247.024872,75.918251 
	C291.086456,76.009636 331.535248,87.951920 366.829376,114.899101 
	C413.083313,150.214127 435.617371,196.395599 425.689148,254.803131 
	C417.712677,301.728607 391.920441,336.717926 347.629913,356.450684 
	C322.998016,367.424866 297.001160,368.379791 270.693817,365.114899 
	C216.635727,358.406067 178.086853,330.467468 156.181503,280.390717 
	C142.549957,249.228302 143.041046,218.962173 163.585983,190.490646 
	C176.684006,172.339172 197.326950,168.019089 216.307968,179.995163 
	C223.594986,184.592896 230.222565,190.272232 236.958023,195.697800 
	C244.219284,201.546906 250.900635,201.324646 257.875153,194.992661 
	C263.047638,190.296707 268.279633,185.599030 273.917572,181.496399 
	C287.576111,171.557327 305.330658,171.040756 318.984436,179.751236 
	C353.419342,201.719116 354.512512,253.674896 320.924286,276.916534 
	C312.994080,282.403931 304.749268,287.448486 296.530273,292.503448 
	C287.333405,298.159790 283.941589,306.787628 287.669006,315.770599 
	C291.296509,324.512756 300.495880,328.990021 310.348663,326.629028 
	C324.481720,323.242310 337.334991,317.029419 348.572662,307.872223 
	C395.969360,269.250397 397.415558,198.247284 351.767273,157.334030 
	C324.498413,132.893723 286.397827,128.910431 257.199432,148.148071 
	C250.083557,152.836426 244.719147,152.627304 237.706604,148.317825 
	C208.427078,130.324478 175.138809,131.684219 148.019562,152.719498 
	C119.552628,174.800140 106.797653,205.637115 108.868477,240.467163 
	C112.551949,302.420837 142.446320,349.643555 196.954575,380.048370 
	C223.666031,394.948090 253.100159,401.310577 283.510925,403.264160 
	C321.790680,405.723236 357.171600,397.060974 389.871338,375.370544 
z"/>
<path fill="#2756B2" opacity="1.000000" stroke="none" 
	d="
M389.577789,375.582214 
	C357.171600,397.060974 321.790680,405.723236 283.510925,403.264160 
	C253.100159,401.310577 223.666031,394.948090 196.954575,380.048370 
	C142.446320,349.643555 112.551949,302.420837 108.868477,240.467163 
	C106.797653,205.637115 119.552628,174.800140 148.019562,152.719498 
	C175.138809,131.684219 208.427078,130.324478 237.706604,148.317825 
	C244.719147,152.627304 250.083557,152.836426 257.199432,148.148071 
	C286.397827,128.910431 324.498413,132.893723 351.767273,157.334030 
	C397.415558,198.247284 395.969360,269.250397 348.572662,307.872223 
	C337.334991,317.029419 324.481720,323.242310 310.348663,326.629028 
	C300.495880,328.990021 291.296509,324.512756 287.669006,315.770599 
	C283.941589,306.787628 287.333405,298.159790 296.530273,292.503448 
	C304.749268,287.448486 312.994080,282.403931 320.924286,276.916534 
	C354.512512,253.674896 353.419342,201.719116 318.984436,179.751236 
	C305.330658,171.040756 287.576111,171.557327 273.917572,181.496399 
	C268.279633,185.599030 263.047638,190.296707 257.875153,194.992661 
	C250.900635,201.324646 244.219284,201.546906 236.958023,195.697800 
	C230.222565,190.272232 223.594986,184.592896 216.307968,179.995163 
	C197.326950,168.019089 176.684006,172.339172 163.585983,190.490646 
	C143.041046,218.962173 142.549957,249.228302 156.181503,280.390717 
	C178.086853,330.467468 216.635727,358.406067 270.693817,365.114899 
	C297.001160,368.379791 322.998016,367.424866 347.629913,356.450684 
	C391.920441,336.717926 417.712677,301.728607 425.689148,254.803131 
	C435.617371,196.395599 413.083313,150.214127 366.829376,114.899101 
	C331.535248,87.951920 291.086456,76.009636 247.024872,75.918251 
	C204.542267,75.830132 165.225174,87.107910 130.901932,112.389145 
	C83.419609,147.362869 60.150185,194.061813 66.851189,253.749161 
	C71.435844,294.585724 85.730476,331.507751 113.442734,362.527008 
	C117.987755,367.614410 122.944572,372.338989 127.790009,377.151794 
	C135.483337,384.793365 137.708267,393.787170 134.760391,404.162872 
	C132.216248,413.117584 129.536591,422.041473 127.340782,431.081970 
	C126.798523,433.314545 127.902809,435.947021 128.387756,439.365387 
	C139.539276,433.147003 149.223694,427.676727 158.976746,422.331726 
	C165.971924,418.498108 172.892975,414.465149 180.146805,411.183655 
	C189.317032,407.035187 198.037231,409.817078 202.765442,417.665131 
	C208.039688,426.419525 206.453293,435.595001 198.117233,442.049133 
	C176.203384,459.015717 151.343140,469.987610 124.683266,476.862122 
	C114.098434,479.591522 103.244217,481.855530 92.381119,482.771454 
	C80.364975,483.784515 75.135948,477.468842 77.924377,465.721893 
	C81.952698,448.751587 86.635315,431.914490 91.699135,415.220917 
	C94.427917,406.225098 93.382431,399.184174 86.922035,391.900330 
	C60.298599,361.883453 41.519386,327.603333 32.724087,288.199982 
	C25.757469,256.989227 26.387897,225.758530 32.425755,194.481827 
	C42.120701,144.261032 70.811821,107.318619 112.301880,79.059662 
	C145.326904,56.566250 181.695267,42.851582 221.331924,39.371151 
	C297.401978,32.691566 364.085480,54.430973 417.823120,109.755707 
	C446.924316,139.716370 463.331848,176.512512 466.073883,218.437622 
	C470.425964,284.979340 444.416748,337.210876 389.577789,375.582214 
z"/>
</svg>